<?xml version="1.0" encoding="UTF-8" standalone="no"?>
<!-- Created with Inkscape (http://www.inkscape.org/) -->

<svg
   width="100mm"
   height="100mm"
   viewBox="0 0 354.33067 354.33071"
   id="svg2"
   version="1.1"
   inkscape:version="1.1.2 (1:1.1+202205011111+08b2f3d93c)"
   sodipodi:docname="goat-head-5-25-2022.svg"
   inkscape:export-filename="/home/goat/projects/goatstone-www-2022/art/goat-head-5-25-2022.png"
   inkscape:export-xdpi="96"
   inkscape:export-ydpi="96"
   xmlns:inkscape="http://www.inkscape.org/namespaces/inkscape"
   xmlns:sodipodi="http://sodipodi.sourceforge.net/DTD/sodipodi-0.dtd"
   xmlns="http://www.w3.org/2000/svg"
   xmlns:svg="http://www.w3.org/2000/svg"
   xmlns:rdf="http://www.w3.org/1999/02/22-rdf-syntax-ns#"
   xmlns:cc="http://creativecommons.org/ns#"
   xmlns:dc="http://purl.org/dc/elements/1.1/">
  <defs
     id="defs4" />
  <sodipodi:namedview
     id="base"
     pagecolor="#ffffff"
     bordercolor="#666666"
     borderopacity="1.0"
     inkscape:pageopacity="0.0"
     inkscape:pageshadow="2"
     inkscape:zoom="0.98994949"
     inkscape:cx="188.39345"
     inkscape:cy="181.32238"
     inkscape:document-units="px"
     inkscape:current-layer="layer1"
     showgrid="false"
     inkscape:window-width="1366"
     inkscape:window-height="704"
     inkscape:window-x="0"
     inkscape:window-y="0"
     inkscape:window-maximized="1"
     inkscape:pagecheckerboard="true" />
  <metadata
     id="metadata7">
    <rdf:RDF>
      <cc:Work
         rdf:about="">
        <dc:format>image/svg+xml</dc:format>
        <dc:type
           rdf:resource="http://purl.org/dc/dcmitype/StillImage" />
      </cc:Work>
    </rdf:RDF>
  </metadata>
  <g
     inkscape:label="Layer 1"
     inkscape:groupmode="layer"
     id="layer1">
    <path
       id="path5756"
       style="opacity:1;fill:#fafafa;stroke:#7d7b7b;stroke-width:10.4435;stroke-linecap:round;stroke-linejoin:round"
       d="m 346.00405,175.71221 a 82.377246,90.608542 0 0 1 -81.52401,90.60367 82.377246,90.608542 0 0 1 -83.2128,-88.72683 82.377246,90.608542 0 0 1 79.80026,-92.441653 82.377246,90.608542 0 0 1 84.86586,86.811893" />
    <path
       style="fill:#fafafa;fill-opacity:1;fill-rule:evenodd;stroke:#7d7b7b;stroke-width:10.4435;stroke-linecap:round;stroke-linejoin:round;stroke-miterlimit:4;stroke-dasharray:none;stroke-opacity:1"
       d="m 250.16782,8.5681571 c 0,0 -40.7263,26.3375729 -50.95758,65.9267529 -7.60447,43.19279 26.8625,80.81725 26.8625,80.81725 l -58.79195,-45.70713 c 0,0 -1.92761,-31.76896 18.31225,-54.221582 17.44759,-28.573352 64.57478,-46.8152909 64.57478,-46.8152909 z"
       id="path4178-7"
       inkscape:connector-curvature="0"
       sodipodi:nodetypes="cccccc" />
    <path
       style="fill:#fafafa;fill-opacity:1;fill-rule:evenodd;stroke:#7d7b7b;stroke-width:10.4435;stroke-linecap:round;stroke-linejoin:round;stroke-miterlimit:4;stroke-dasharray:none;stroke-opacity:1"
       d="m 54.57156,12.499405 c 0,0 40.726302,26.337574 50.95759,65.926753 7.60446,43.192812 -26.862514,80.817272 -26.862514,80.817272 L 137.4586,113.53627 c 0,0 1.9276,-31.768943 -18.31225,-54.221569 C 101.69875,30.741345 54.57156,12.499405 54.57156,12.499405 Z"
       id="path4178-7-3"
       inkscape:connector-curvature="0"
       sodipodi:nodetypes="cccccc" />
    <path
       style="fill:#fafafa;fill-opacity:1;fill-rule:evenodd;stroke:#7d7b7b;stroke-width:10.4435;stroke-linecap:round;stroke-linejoin:round;stroke-miterlimit:4;stroke-dasharray:none;stroke-opacity:1"
       d="m 225.2715,141.75728 c 0.68151,2.26807 -6.70682,35.83585 6.81512,33.45387 l 23.8529,-23.81461 15.17062,-13.50764 23.67554,-21.08026 c -36.80162,3.40209 -69.51418,24.94864 -69.51418,24.94864 z"
       id="path5711"
       inkscape:connector-curvature="0"
       sodipodi:nodetypes="cccccc" />
    <path
       style="fill:#fafafa;fill-opacity:1;fill-rule:evenodd;stroke:#7d7b7b;stroke-width:10.4435;stroke-linecap:round;stroke-linejoin:round;stroke-miterlimit:4;stroke-dasharray:none;stroke-opacity:1"
       d="m 80.630341,135.98598 c -0.681516,2.26807 6.706815,35.83584 -6.815118,33.45387 L 49.962321,145.62523 34.791693,132.11758 11.116161,111.03733 c 36.801621,3.4021 69.51418,24.94865 69.51418,24.94865 z"
       id="path5711-5"
       inkscape:connector-curvature="0"
       sodipodi:nodetypes="cccccc" />
    <path
       style="opacity:1;fill:#fafafa;fill-opacity:1;stroke:#7d7b7b;stroke-width:10.4435;stroke-miterlimit:4;stroke-dasharray:none;stroke-opacity:1"
       d="m 228.91847,178.47711 c -7.28526,22.77051 -19.14151,32.12278 -29.60099,46.85619 -10.4386,14.704 -24.3943,30.89173 -43.50001,35.35469 -1.88429,0.44014 -0.40139,0.10743 -2.35641,0.10743 -28.24009,0 -27.74997,-5.31444 -48.4014,-33.87481 -12.618583,-17.45117 -22.910643,-20.72737 -30.80748,-45.86158 -14.165305,-45.08566 27.02716,-66.2737 70.58308,-66.2737 43.55592,0 97.43482,21.9605 84.08321,63.69178 z"
       id="path4136"
       inkscape:connector-curvature="0"
       sodipodi:nodetypes="ssssssss" />
    <path
       style="fill:#fafafa;fill-opacity:1;fill-rule:evenodd;stroke:#7d7b7b;stroke-width:10.4435;stroke-linecap:butt;stroke-linejoin:miter;stroke-miterlimit:4;stroke-dasharray:none;stroke-opacity:1"
       d="m 119.53352,272.82101 c 0,4.00939 12.52944,53.72594 12.52944,53.72594 0,0 15.42085,-23.25452 13.49323,-20.047 -1.92759,3.20752 4.81902,46.50904 4.81902,46.50904 0,0 11.56563,-71.36731 9.63802,-67.3579 -1.9276,4.00939 10.60185,51.3203 10.60185,48.11278 0,-3.20751 10.60182,-56.93347 10.60182,-56.93347 l -35.66071,4.81128 z"
       id="path4157"
       inkscape:connector-curvature="0"
       sodipodi:nodetypes="ccscssccc" />
    <ellipse
       style="opacity:1;fill:#fafafa;fill-opacity:1;stroke:#7d7b7b;stroke-width:10.4435;stroke-miterlimit:4;stroke-dasharray:none;stroke-opacity:1"
       id="path4138"
       ry="42.122986"
       rx="37.383656"
       cy="245.36568"
       cx="150.53018" />
    <ellipse
       style="opacity:1;fill:#fafafa;fill-opacity:1;stroke:#7d7b7b;stroke-width:10.4435;stroke-miterlimit:4;stroke-dasharray:none;stroke-opacity:1"
       id="path4159-6"
       cx="203.69916"
       cy="164.80208"
       rx="15.420846"
       ry="10.56202" />
    <rect
       style="opacity:1;fill:#fafafa;fill-opacity:1;stroke:#7d7b7b;stroke-width:6.70369;stroke-linejoin:round;stroke-miterlimit:4;stroke-dasharray:none;stroke-opacity:1"
       id="rect4176"
       width="53.585667"
       height="8.092617"
       x="123.73806"
       y="250.12537"
       ry="1.0920097" />
    <ellipse
       style="opacity:1;fill:#fafafa;fill-opacity:1;stroke:#7d7b7b;stroke-width:10.4435;stroke-miterlimit:4;stroke-dasharray:none;stroke-opacity:1"
       id="path4159-6-5"
       cx="99.931602"
       cy="161.83804"
       rx="15.420846"
       ry="10.56202" />
    <path
       style="fill:#fafafa;fill-opacity:1;fill-rule:evenodd;stroke:#7d7b7b;stroke-width:10.4435;stroke-linecap:round;stroke-linejoin:round;stroke-miterlimit:4;stroke-dasharray:none;stroke-opacity:1"
       d="m 130.73346,219.3672 c 2.00042,0 37.5079,1.13665 37.5079,1.13665 0,0 -19.00401,22.35424 -21.50453,21.59646 -2.50053,-0.75776 -16.00337,-22.73311 -16.00337,-22.73311 z"
       id="path4264"
       inkscape:connector-curvature="0" />
  </g>
</svg>
